<svg width="670.000000" height="360.000000" viewBox="0 0 670 360" fill="none" xmlns="http://www.w3.org/2000/svg" xmlns:xlink="http://www.w3.org/1999/xlink">
	<desc>
			Created with Pixso.
	</desc>
	<defs/>
	<path id="Rectangle 1124" d="M19.5 -0.5L649.5 -0.5C660.54 -0.5 669.5 8.45 669.5 19.5L669.5 339.5C669.5 350.54 660.54 359.5 649.5 359.5L334.5 359.5L19.5 359.5C8.45 359.5 -0.5 350.54 -0.5 339.5L-0.5 19.5C-0.5 8.45 8.45 -0.5 19.5 -0.5Z" fill="#F8BC5C" fill-opacity="1.000000" fill-rule="evenodd"/>
	<path id="SERM" d="M268.06 285.52L261.22 285.52C260.85 282.18 258.05 280.21 253.81 280.21C249.36 280.21 246.71 282.37 246.7 285.32C246.66 288.6 250.14 289.96 253.37 290.74L257.05 291.65C262.96 293.06 268.57 296.16 268.6 302.97C268.57 309.9 263.11 314.59 253.7 314.59C244.55 314.59 238.74 310.2 238.45 302.39L245.45 302.39C245.74 306.52 249.19 308.51 253.64 308.51C258.28 308.51 261.47 306.27 261.48 302.91C261.47 299.86 258.66 298.54 254.43 297.46L249.96 296.32C243.5 294.64 239.49 291.41 239.49 285.77C239.46 278.82 245.66 274.18 253.91 274.18C262.27 274.18 267.93 278.89 268.06 285.52ZM301.7 314L276.01 314L276.01 274.72L301.54 274.72L301.54 280.68L283.11 280.68L283.11 291.35L300.22 291.35L300.22 297.32L283.11 297.32L283.11 308.04L301.7 308.04L301.7 314ZM317 314L309.9 314L309.9 274.72L324.62 274.72C333.64 274.72 338.46 279.78 338.46 287.29C338.46 292.61 336.03 296.57 331.41 298.43L339.9 314L331.97 314L324.25 299.61L317 299.61L317 314ZM346.11 314L346.11 274.72L354.81 274.72L366.48 303.18L366.92 303.18L378.59 274.72L387.29 274.72L387.29 314L380.46 314L380.46 287.01L380.11 287.01L369.24 313.88L364.15 313.88L353.29 286.96L352.94 286.96L352.94 314L346.11 314ZM317 280.67L317 293.71L323.57 293.71C328.84 293.71 331.21 291.46 331.21 287.29C331.21 283.11 328.84 280.67 323.53 280.67L317 280.67Z" fill="#202020" fill-opacity="1.000000" fill-rule="evenodd"/>
</svg>
