<svg width="670.000000" height="360.000000" viewBox="0 0 670 360" fill="none" xmlns="http://www.w3.org/2000/svg" xmlns:xlink="http://www.w3.org/1999/xlink">
	<desc>
			Created with Pixso.
	</desc>
	<defs/>
	<path id="Rectangle 1120" d="M20 0L650 0C661.04 0 670 8.95 670 20L670 340C670 351.04 661.04 360 650 360L20 360C8.95 360 0 351.04 0 340L0 20C0 8.95 8.95 0 20 0Z" fill="#F8BC5C" fill-opacity="1.000000" fill-rule="nonzero"/>
	<path id="SEO" d="M297.06 285.52L290.22 285.52C289.85 282.18 287.05 280.21 282.81 280.21C278.36 280.21 275.71 282.37 275.7 285.32C275.66 288.6 279.14 289.96 282.37 290.74L286.05 291.65C291.96 293.06 297.57 296.16 297.6 302.97C297.57 309.9 292.11 314.59 282.7 314.59C273.55 314.59 267.74 310.2 267.45 302.39L274.45 302.39C274.74 306.52 278.19 308.51 282.64 308.51C287.28 308.51 290.47 306.27 290.48 302.91C290.47 299.86 287.66 298.54 283.43 297.46L278.96 296.32C272.5 294.64 268.49 291.41 268.49 285.77C268.46 278.82 274.66 274.18 282.91 274.18C291.27 274.18 296.93 278.89 297.06 285.52ZM355.94 274.18C366.24 274.18 373.99 281.67 373.99 294.37C373.99 307.05 366.24 314.54 355.94 314.54C345.62 314.54 337.89 307.03 337.89 294.37C337.89 281.67 345.62 274.18 355.94 274.18ZM330.7 314L305.01 314L305.01 274.72L330.54 274.72L330.54 280.68L312.11 280.68L312.11 291.35L329.22 291.35L329.22 297.32L312.11 297.32L312.11 308.04L330.7 308.04L330.7 314ZM355.94 308.14C362.35 308.14 366.83 303.29 366.83 294.37C366.83 285.43 362.35 280.57 355.94 280.57C349.56 280.57 345.05 285.43 345.05 294.37C345.05 303.29 349.56 308.14 355.94 308.14Z" fill="#202020" fill-opacity="1.000000" fill-rule="evenodd"/>
</svg>
