<svg width="86.000000" height="40.000000" viewBox="0 0 86 40" fill="none" xmlns="http://www.w3.org/2000/svg" xmlns:xlink="http://www.w3.org/1999/xlink">
	<desc>
			Created with Pixso.
	</desc>
	<defs>
		<clipPath id="clip3_30">
			<rect id="Instagram_Glyph_Black 1" width="21.250000" height="21.250000" transform="translate(9.375000 9.375000)" fill="white" fill-opacity="0"/>
		</clipPath>
		<clipPath id="clip3_35">
			<rect id="Twitter Original *" width="22.500000" height="22.500000" transform="translate(54.750000 8.750000)" fill="white" fill-opacity="0"/>
		</clipPath>
		<clipPath id="clip3_36">
			<rect id="Twitter Castom *" width="40.000000" height="40.000000" transform="translate(46.000000 0.000000)" fill="white" fill-opacity="0"/>
		</clipPath>
	</defs>
	<rect id="Rectangle 1" rx="18.000000" width="40.000000" height="40.000000" fill="#202020" fill-opacity="1.000000"/>
	<rect id="Instagram_Glyph_Black 1" width="21.250000" height="21.250000" transform="translate(9.375000 9.375000)" fill="#FFFFFF" fill-opacity="0"/>
	<g clip-path="url(#clip3_30)">
		<path id="Vector" d="M15.59 9.44C14.46 9.5 13.69 9.68 13.02 9.94C12.32 10.22 11.73 10.58 11.14 11.17C10.55 11.76 10.19 12.36 9.92 13.06C9.65 13.73 9.48 14.5 9.43 15.64C9.38 16.77 9.37 17.13 9.37 20.02C9.38 22.9 9.39 23.26 9.44 24.4C9.5 25.53 9.68 26.3 9.94 26.97C10.22 27.67 10.58 28.26 11.17 28.85C11.76 29.44 12.36 29.8 13.06 30.07C13.73 30.34 14.51 30.51 15.64 30.56C16.77 30.61 17.13 30.62 20.02 30.62C22.9 30.61 23.26 30.6 24.4 30.55C25.53 30.49 26.3 30.31 26.97 30.05C27.67 29.77 28.26 29.41 28.85 28.82C29.44 28.23 29.8 27.63 30.07 26.93C30.34 26.26 30.51 25.49 30.56 24.36C30.61 23.22 30.62 22.86 30.62 19.97C30.61 17.09 30.6 16.73 30.55 15.6C30.49 14.46 30.31 13.69 30.05 13.02C29.77 12.32 29.41 11.73 28.82 11.14C28.23 10.55 27.63 10.19 26.93 9.92C26.26 9.65 25.49 9.48 24.35 9.43C23.22 9.38 22.86 9.37 19.97 9.37C17.09 9.38 16.73 9.39 15.59 9.44ZM15.72 28.65C14.68 28.61 14.12 28.43 13.75 28.29C13.25 28.1 12.9 27.87 12.52 27.5C12.15 27.13 11.92 26.77 11.73 26.28C11.58 25.9 11.4 25.34 11.36 24.31C11.3 23.19 11.29 22.85 11.29 20.01C11.28 17.18 11.29 16.84 11.34 15.72C11.38 14.69 11.56 14.12 11.7 13.75C11.89 13.25 12.12 12.9 12.49 12.52C12.86 12.15 13.22 11.92 13.71 11.73C14.09 11.58 14.65 11.41 15.69 11.36C16.81 11.3 17.14 11.29 19.98 11.29C22.81 11.28 23.15 11.29 24.27 11.34C25.31 11.39 25.87 11.56 26.24 11.7C26.74 11.89 27.09 12.12 27.47 12.5C27.84 12.87 28.07 13.22 28.27 13.72C28.41 14.09 28.59 14.65 28.63 15.69C28.69 16.81 28.7 17.14 28.7 19.98C28.71 22.82 28.7 23.15 28.65 24.27C28.61 25.31 28.43 25.87 28.29 26.25C28.1 26.74 27.87 27.1 27.5 27.47C27.13 27.84 26.77 28.07 26.28 28.27C25.9 28.41 25.34 28.59 24.31 28.64C23.18 28.69 22.85 28.7 20.01 28.71C17.17 28.71 16.84 28.7 15.72 28.65L15.72 28.65ZM24.38 14.32C24.38 14.57 24.46 14.82 24.6 15.02C24.74 15.23 24.94 15.4 25.17 15.49C25.4 15.59 25.66 15.61 25.91 15.56C26.15 15.51 26.38 15.39 26.56 15.21C26.74 15.04 26.86 14.81 26.91 14.56C26.96 14.31 26.93 14.06 26.83 13.82C26.74 13.59 26.57 13.39 26.36 13.25C26.15 13.11 25.91 13.04 25.65 13.04C25.31 13.04 24.99 13.18 24.75 13.41C24.51 13.65 24.38 13.98 24.38 14.32ZM14.54 20.01C14.55 23.02 16.99 25.46 20.01 25.45C23.02 25.44 25.46 23 25.45 19.98C25.45 16.97 23 14.53 19.98 14.54C16.97 14.55 14.53 16.99 14.54 20.01ZM16.45 20C16.45 19.3 16.66 18.62 17.05 18.03C17.43 17.45 17.99 16.99 18.63 16.73C19.28 16.46 19.99 16.38 20.68 16.52C21.37 16.66 22 16.99 22.49 17.49C22.99 17.98 23.33 18.61 23.47 19.3C23.61 19.98 23.54 20.7 23.27 21.34C23 21.99 22.55 22.55 21.97 22.94C21.39 23.33 20.7 23.54 20 23.54C19.54 23.54 19.08 23.45 18.65 23.27C18.22 23.09 17.83 22.83 17.5 22.5C17.17 22.18 16.9 21.79 16.73 21.36C16.55 20.93 16.45 20.47 16.45 20Z" fill="#FFFFFF" fill-opacity="1.000000" fill-rule="nonzero"/>
	</g>
	<rect id="Twitter Castom *" width="40.000000" height="40.000000" transform="translate(46.000000 0.000000)" fill="#FFFFFF" fill-opacity="0"/>
	<g clip-path="url(#clip3_36)">
		<rect id="Rectangle 1" x="46.000000" rx="18.000000" width="40.000000" height="40.000000" fill="#202020" fill-opacity="1.000000"/>
		<rect id="Twitter Original *" width="22.500000" height="22.500000" transform="translate(54.750000 8.750000)" fill="#FFFFFF" fill-opacity="0"/>
		<g clip-path="url(#clip3_35)">
			<path id="white_background" d="M74.88 15.39C74.9 15.59 74.9 15.79 74.9 15.99C74.9 22.04 70.29 29.02 61.86 29.02L61.86 29.02C59.37 29.02 56.93 28.31 54.84 26.97C55.2 27.01 55.56 27.03 55.93 27.03C57.99 27.03 59.99 26.34 61.62 25.07C59.66 25.03 57.94 23.75 57.34 21.88C58.02 22.02 58.73 21.99 59.4 21.81C57.27 21.37 55.73 19.5 55.73 17.32C55.73 17.29 55.73 17.28 55.73 17.26C56.37 17.61 57.08 17.81 57.81 17.83C55.8 16.48 55.18 13.81 56.39 11.71C58.72 14.58 62.15 16.32 65.83 16.5C65.46 14.91 65.97 13.24 67.16 12.12C69 10.39 71.91 10.48 73.64 12.32C74.67 12.12 75.65 11.74 76.55 11.21C76.21 12.27 75.49 13.17 74.54 13.74C75.45 13.64 76.33 13.39 77.17 13.02C76.55 13.94 75.78 14.75 74.88 15.39Z" fill="#FFFFFF" fill-opacity="1.000000" fill-rule="nonzero"/>
		</g>
	</g>
</svg>
