<svg width="58.000000" height="65.000000" viewBox="0 0 58 65" fill="none" xmlns="http://www.w3.org/2000/svg" xmlns:xlink="http://www.w3.org/1999/xlink">
	<desc>
			Created with Pixso.
	</desc>
	<defs/>
	<path d="M42.03 25C43.96 26.93 48.08 28.09 49.65 28.38C48.11 30.04 45.58 29.64 44.46 29.47C43.9 29.39 43.7 29.35 44.11 29.64C44.98 30.24 45.97 30.18 46.97 30.11C47.43 30.08 47.89 30.05 48.34 30.09C49.76 30.2 50.86 31.23 50.42 31.67C50.24 31.85 49.37 31.85 48.32 31.85C46.82 31.86 44.95 31.86 44.11 32.38C43.72 32.62 43.14 33.01 42.47 33.46C40.69 34.67 38.25 36.32 36.98 36.75L36.92 36.77C35.18 37.37 33.24 38.03 32.86 40.2C32.64 41.44 32.87 42.25 33.07 42.98C33.23 43.54 33.37 44.05 33.3 44.69C33.13 46.17 29.68 46.76 29.57 46.6C29.52 46.53 29.66 46.41 29.83 46.27C30.05 46.09 30.32 45.87 30.23 45.68C30.14 45.5 29.49 45.51 28.89 45.51C28.34 45.52 27.84 45.52 27.81 45.4C27.78 45.26 28.17 45.05 28.54 44.86C28.88 44.69 29.21 44.52 29.18 44.41C29.16 44.33 28.95 44.27 28.74 44.22C28.53 44.16 28.33 44.11 28.36 44.03C28.39 43.96 28.97 43.92 29.62 43.87C30.36 43.82 31.18 43.77 31.32 43.65C31.65 43.38 32.09 42.07 30.61 39.93C29.42 38.23 26.82 37.8 25.67 37.8L27.59 38.61C27.57 38.92 27.52 39.34 27.47 39.8C27.38 40.73 27.26 41.81 27.26 42.45C27.26 43.02 27.38 43.15 27.48 43.25C27.58 43.36 27.66 43.43 27.48 44.04C27.15 45.18 22.76 45.79 22.71 45.13C22.68 44.8 23.05 44.69 23.38 44.6C23.71 44.5 24 44.42 23.8 44.15C23.6 43.85 23.11 43.89 22.72 43.92C22.39 43.94 22.14 43.96 22.21 43.76C22.31 43.48 22.94 43.4 23.42 43.34C23.71 43.31 23.95 43.28 23.97 43.22C24 43.11 23.84 43.07 23.63 43.02C23.5 42.98 23.34 42.94 23.2 42.88C22.89 42.75 23.2 42.62 23.48 42.67C23.75 42.72 25.78 42.65 25.83 42.34C26.1 39.15 25.01 38.23 24.02 37.57C23.78 37.41 23.41 37.26 22.92 37.07C21.43 36.47 18.89 35.46 15.9 32.38C11.98 28.35 13.49 25.14 15.34 21.17C15.83 20.13 16.34 19.05 16.78 17.88C18.49 13.37 17.66 10.92 17.11 9.73C15.22 9.78 14.25 8.8 13.68 8.23C13.59 8.13 13.5 8.05 13.43 7.98C10.66 7.98 9.53 7.54 9.48 6.94C9.43 6.34 11.95 5.96 11.95 5.96C11.95 5.96 12.73 5.68 13.05 5.57C13.05 5.17 13.4 4.95 13.67 4.78C13.78 4.71 13.88 4.65 13.93 4.59C13.05 4.37 12.99 3.61 13.21 3.44C13.39 3.31 14.14 3.61 14.47 3.83C14.83 2.74 14.55 1.19 14.36 0.55C16.69 -0.63 18.3 0.35 18.81 0.99C17.71 3.8 18.11 3.98 18.43 4.14C18.45 4.14 18.46 4.15 18.48 4.16C18.61 4.22 18.84 4.19 19.06 4.16C19.39 4.12 19.72 4.07 19.69 4.37C19.65 4.68 18.43 4.97 18.43 4.97C18.43 4.97 19.71 5.59 21.06 8.69C22.58 12.17 22.14 16.01 21.85 18.58C21.67 20.13 21.55 21.22 21.94 21.49C22.91 22.16 24.79 21.36 25.93 20.89C26.01 20.85 26.09 20.82 26.16 20.79C32.37 19.53 39.61 22.59 42.03 25ZM21.33 13.29C21.2 8.65 19.3 6.21 18.37 5.57L18.1 6.83C18.62 7.45 19.38 8.91 19.69 9.57L20.13 9.57C20.7 10.57 21.17 12.47 21.33 13.29ZM24.3 22.64C24.92 22.24 26.99 21.16 30.5 21.38C34.01 21.6 37.42 22.91 40.16 24.88L34.51 23.79L33.41 24.34C31.89 23.48 28.07 22.12 24.3 22.64ZM18.21 1.09C18.03 1.26 17.44 2.57 17.38 3.82L16.72 3.71L16.94 0.65C17.66 0.71 18.08 0.98 18.21 1.09ZM20.6 22.06C20.31 22.2 19.87 22.4 19.19 22.86C19.72 21.53 21.39 15.53 21.39 15.53C21.39 15.53 21.12 20.51 21.12 21.33C21.12 21.82 21.04 21.86 20.6 22.06ZM12.33 6.32C12.33 6.18 12.94 6.02 12.94 6.21C12.94 6.4 12.33 6.45 12.33 6.32ZM14.6 6.17C14.38 5.84 14.71 5.29 15.04 5.18C15.37 5.07 15.99 5.13 16.08 5.78C16.19 6.6 14.82 6.49 14.6 6.17Z" fill="#FFFFFF" fill-opacity="1.000000" fill-rule="evenodd"/>
	<path d="M5.09 53.19L9.11 53.19Q9.54 53.19 9.81 53.4Q10.23 53.73 10.23 54.59L10.23 56.7L11.67 56.81L11.67 58.31L8.39 58.31L9.43 54.6L8.98 54.6Q8.78 55.99 8.03 56.93Q7.82 57.2 7.57 57.43Q7.25 57.72 6.89 57.93Q5.94 58.48 4.67 58.48Q3.48 58.48 2.52 58L2.52 58Q1.88 57.69 1.34 57.16Q0.85 56.68 0.54 56.1L0.54 56.1Q0 55.09 0 53.79Q0 52.44 0.56 51.4L0.56 51.4Q0.91 50.77 1.46 50.26Q1.8 49.94 2.19 49.7L2.19 49.7Q3.47 48.89 5.26 48.89Q6.03 48.89 6.74 49.08L6.74 49.08L6.74 49.08Q7.01 49.15 7.28 49.25C7.93 49.48 8.49 49.87 8.97 50.42C9.44 50.96 9.7 51.6 9.74 52.35L8.02 52.31Q7.98 52.01 7.86 51.75L7.86 51.75Q7.64 51.3 7.13 50.99Q6.36 50.49 5.21 50.49Q3.8 50.49 2.99 51.19L2.99 51.19L2.99 51.19L2.99 51.19Q2.88 51.29 2.77 51.4Q2.66 51.52 2.57 51.66L2.57 51.66L2.57 51.66Q1.96 52.5 1.96 53.78Q1.96 54.76 2.4 55.45Q2.6 55.76 2.89 56.01Q3.25 56.32 3.65 56.51L3.65 56.51Q4.33 56.82 5.15 56.82C5.89 56.82 6.58 56.63 7.21 56.24C7.85 55.86 8.21 55.31 8.32 54.6L5.09 54.6L5.09 53.19ZM21.85 49.71Q22.26 49.96 22.64 50.28C23.7 51.19 24.24 52.34 24.25 53.72C24.25 55.1 23.71 56.24 22.65 57.15Q22.29 57.46 21.89 57.7L21.89 57.7Q20.53 58.52 18.67 58.52Q16.87 58.52 15.52 57.73L15.52 57.73L15.52 57.73L15.52 57.73Q15.08 57.48 14.7 57.15Q13.88 56.44 13.48 55.55L13.48 55.55Q13.12 54.72 13.12 53.72C13.12 52.38 13.65 51.24 14.72 50.31Q15.24 49.86 15.84 49.56L15.84 49.56L15.84 49.56Q17.09 48.92 18.67 48.92Q20.49 48.92 21.85 49.71L21.85 49.71ZM35.19 50.28C34.14 49.37 32.82 48.92 31.23 48.92Q29.65 48.92 28.39 49.56Q27.8 49.86 27.28 50.31C26.21 51.24 25.67 52.38 25.67 53.72Q25.67 54.72 26.04 55.55L26.04 55.55Q26.43 56.44 27.25 57.15Q27.64 57.48 28.07 57.73Q29.42 58.52 31.23 58.52C32.83 58.52 34.15 58.06 35.21 57.15C36.27 56.24 36.8 55.1 36.8 53.72C36.79 52.34 36.26 51.19 35.19 50.28ZM40.48 51.89C40.48 52.19 40.62 52.44 40.91 52.62C41.2 52.8 41.57 52.91 42.03 52.98C42.5 53.04 43.01 53.09 43.57 53.12C44.13 53.16 44.7 53.21 45.26 53.29C45.82 53.36 46.33 53.47 46.79 53.62C47.25 53.76 47.63 54 47.92 54.34C48.21 54.68 48.35 55.11 48.35 55.63Q48.35 56.14 48.16 56.56Q47.83 57.29 46.92 57.75Q45.48 58.49 43.24 58.49Q41.99 58.49 41.04 58.28C40.42 58.13 39.93 57.95 39.58 57.74C39.23 57.52 38.94 57.26 38.73 56.97C38.51 56.67 38.36 56.39 38.29 56.14C38.23 55.88 38.2 55.6 38.2 55.31L40.35 55.31C40.34 55.92 40.58 56.36 41.08 56.65C41.59 56.93 42.31 57.07 43.23 57.07C45.26 57.07 46.27 56.6 46.27 55.65Q46.27 55.41 46.17 55.22Q46.06 55.01 45.82 54.87C45.53 54.67 45.16 54.55 44.69 54.5C44.23 54.44 43.71 54.39 43.14 54.37C42.58 54.34 42.01 54.3 41.45 54.24C40.89 54.17 40.38 54.06 39.91 53.91C39.44 53.76 39.06 53.51 38.76 53.16C38.47 52.8 38.33 52.34 38.33 51.78C38.33 50.9 38.77 50.21 39.65 49.72Q40.96 48.99 43.41 48.99Q45.65 48.99 46.94 49.79Q47.46 50.1 47.77 50.55Q48.24 51.24 48.22 52.27L46.21 52.27C46.21 51 45.28 50.36 43.41 50.36C41.46 50.36 40.48 50.87 40.48 51.89ZM52.08 50.6L58 50.6L58 49.12L50.28 49.12L50.28 58.31L58 58.31L58 56.82L52.08 56.82L52.08 54.41L57.57 54.41L57.57 53.21L52.08 53.21L52.08 50.6ZM18.67 57.12C19.69 57.12 20.54 56.82 21.22 56.22Q21.56 55.92 21.79 55.54L21.79 55.54Q22.24 54.8 22.24 53.78C22.24 52.72 21.93 51.89 21.29 51.3Q21.16 51.17 21.02 51.07Q20.13 50.4 18.75 50.38C17.72 50.36 16.86 50.66 16.17 51.28Q15.86 51.57 15.64 51.92L15.64 51.92Q15.16 52.7 15.16 53.78Q15.16 54.9 15.68 55.68L15.68 55.68Q15.88 55.98 16.16 56.23Q16.42 56.47 16.73 56.64Q17.56 57.12 18.67 57.12ZM33.77 56.22C33.09 56.82 32.25 57.12 31.23 57.12C30.22 57.12 29.38 56.83 28.71 56.23C28.04 55.64 27.71 54.82 27.71 53.78Q27.71 52.7 28.19 51.92Q28.41 51.57 28.73 51.28Q29.03 51.01 29.38 50.82L29.38 50.82L29.38 50.82Q30.21 50.36 31.31 50.38C32.37 50.39 33.22 50.7 33.85 51.3C34.48 51.89 34.8 52.72 34.8 53.78C34.8 54.8 34.46 55.61 33.77 56.22Z" fill="#FFFFFF" fill-opacity="1.000000" fill-rule="evenodd"/>
	<path d="M22.37 61.19L23.71 61.19Q23.86 61.19 23.95 61.27Q24.09 61.38 24.09 61.66L24.09 62.37L24.57 62.4L24.57 62.9L23.47 62.9L23.82 61.67L23.67 61.67Q23.6 62.13 23.35 62.44Q23.28 62.53 23.2 62.61Q23.09 62.71 22.97 62.78L22.97 62.78Q22.66 62.96 22.23 62.96Q21.84 62.96 21.52 62.8Q21.3 62.7 21.12 62.52Q20.96 62.36 20.86 62.17L20.86 62.17Q20.68 61.83 20.68 61.4Q20.68 60.95 20.87 60.6L20.87 60.6L20.87 60.6Q20.98 60.39 21.16 60.22Q21.28 60.11 21.41 60.03L21.41 60.03Q21.83 59.76 22.43 59.76Q22.69 59.76 22.92 59.83L22.92 59.83L22.92 59.83Q23.02 59.85 23.1 59.88Q23.21 59.92 23.31 59.98L23.31 59.98L23.31 59.98Q23.51 60.09 23.67 60.27Q23.77 60.39 23.83 60.52L23.83 60.52Q23.91 60.7 23.92 60.91L23.35 60.9C23.33 60.72 23.23 60.57 23.06 60.46Q22.8 60.3 22.41 60.3Q21.94 60.3 21.67 60.53Q21.64 60.56 21.6 60.6Q21.56 60.64 21.53 60.68L21.53 60.68Q21.33 60.96 21.33 61.39Q21.33 61.72 21.48 61.95L21.48 61.95Q21.54 62.05 21.64 62.14Q21.76 62.24 21.89 62.3L21.89 62.3Q22.12 62.41 22.39 62.41Q22.59 62.41 22.77 62.35Q22.93 62.3 23.08 62.21C23.29 62.09 23.41 61.9 23.45 61.67L22.37 61.67L22.37 61.19ZM27.8 60.6L27.8 60.6Q27.84 60.63 27.89 60.67C28.09 60.86 28.19 61.16 28.17 61.59L27.56 61.59Q27.56 61.23 27.42 61.07Q27.42 61.07 27.42 61.07Q27.28 60.9 26.94 60.9Q26.69 60.9 26.48 60.98L26.48 60.98L26.48 60.98Q26.46 60.99 26.44 61C26.29 61.06 26.17 61.14 26.08 61.24C26 61.33 25.93 61.43 25.88 61.54Q25.81 61.68 25.81 61.81L25.81 62.91L25.15 62.91L25.15 60.44L25.81 60.44L25.81 60.84L25.72 61.1L25.87 61.1Q26.06 60.74 26.36 60.56L26.36 60.56L26.36 60.56Q26.66 60.39 27.06 60.39Q27.51 60.39 27.8 60.6ZM30.58 60.47C30.4 60.42 30.22 60.39 30.03 60.39C29.76 60.39 29.5 60.44 29.26 60.53C29.02 60.63 28.82 60.78 28.65 60.98Q28.55 61.11 28.49 61.26Q28.41 61.45 28.41 61.68Q28.41 61.96 28.51 62.18L28.51 62.18Q28.63 62.43 28.87 62.62Q29 62.71 29.13 62.77Q29.52 62.97 30 62.97Q30.51 62.97 30.9 62.76L30.9 62.76L30.9 62.76Q31.01 62.7 31.11 62.62Q31.34 62.45 31.45 62.23Q31.58 61.99 31.58 61.68Q31.58 61.41 31.47 61.18Q31.46 61.15 31.44 61.12C31.35 60.94 31.23 60.81 31.07 60.7C30.93 60.6 30.76 60.52 30.58 60.47ZM36.95 62.72C37.18 62.87 37.45 62.94 37.75 62.94C38.12 62.94 38.43 62.83 38.69 62.61Q38.8 62.52 38.88 62.41Q39.08 62.11 39.08 61.67Q39.08 61.22 38.87 60.92Q38.8 60.81 38.7 60.73C38.45 60.51 38.14 60.4 37.77 60.4C37.49 60.4 37.23 60.46 36.98 60.58C36.73 60.7 36.55 60.84 36.45 61.02L36.3 61.02L36.49 60.72L36.49 60.44L35.83 60.44L35.83 64L36.49 64L36.49 62.59L36.29 62.14L36.42 62.14C36.54 62.38 36.71 62.57 36.95 62.72ZM33.25 62.95C33.14 62.95 33.03 62.94 32.92 62.92C32.82 62.9 32.71 62.86 32.61 62.81C32.51 62.75 32.42 62.69 32.35 62.6C32.27 62.52 32.21 62.41 32.17 62.28Q32.1 62.07 32.1 61.81L32.1 60.43L32.75 60.43L32.75 61.71Q32.75 61.85 32.76 61.96C32.78 62.03 32.8 62.11 32.84 62.2C32.88 62.28 32.95 62.35 33.05 62.4C33.14 62.45 33.26 62.47 33.41 62.47C33.57 62.47 33.72 62.44 33.86 62.38C34.01 62.31 34.12 62.23 34.21 62.13C34.29 62.03 34.36 61.94 34.41 61.84Q34.49 61.68 34.49 61.56L34.49 60.43L35.15 60.43L35.15 62.9L34.49 62.9L34.49 62.5L34.58 62.24L34.44 62.24C34.2 62.71 33.8 62.95 33.25 62.95ZM29.32 62.35C29.15 62.17 29.06 61.94 29.06 61.68C29.06 61.44 29.14 61.23 29.31 61.05C29.48 60.86 29.71 60.77 30.01 60.77C30.29 60.77 30.51 60.85 30.67 61.03Q30.75 61.12 30.81 61.22L30.81 61.22Q30.92 61.42 30.92 61.68Q30.92 61.94 30.81 62.14L30.81 62.14Q30.75 62.26 30.66 62.35C30.48 62.53 30.26 62.62 29.99 62.62C29.72 62.62 29.5 62.53 29.32 62.35ZM36.77 61.01C36.96 60.85 37.21 60.78 37.52 60.78C37.82 60.78 38.04 60.85 38.2 61C38.35 61.15 38.43 61.36 38.43 61.63C38.43 61.9 38.35 62.11 38.2 62.26C38.06 62.42 37.83 62.49 37.53 62.49C37.21 62.49 36.96 62.41 36.77 62.24C36.59 62.06 36.5 61.85 36.5 61.6Q36.5 61.39 36.58 61.23Q36.65 61.1 36.77 61.01Z" fill="#FFFFFF" fill-opacity="1.000000" fill-rule="evenodd"/>
	<path d="M44.23 40.3L43.69 41.25L42.73 41.79L43.69 42.33L44.23 43.28L44.77 42.33L45.72 41.79L44.77 41.25L44.23 40.3Z" fill="#FFFFFF" fill-opacity="1.000000" fill-rule="evenodd"/>
	<path d="M13.67 40.3L13.13 41.25L12.17 41.79L13.13 42.33L13.67 43.28L14.21 42.33L15.16 41.79L14.21 41.25L13.67 40.3Z" fill="#FFFFFF" fill-opacity="1.000000" fill-rule="evenodd"/>
</svg>
